<?xml version="1.0" encoding="UTF-8"?>
<svg id="Livello_1" xmlns="http://www.w3.org/2000/svg" version="1.1" viewBox="0 0 1180 287.2">
  <!-- Generator: Adobe Illustrator 29.1.0, SVG Export Plug-In . SVG Version: 2.1.0 Build 142)  -->
  <defs>
    <style>
      .st0 {
        fill: #004166;
      }

      .st1 {
        fill: #ed6b3b;
      }
    </style>
  </defs>
  <path class="st1" d="M876.4,242.5c4.5,1.2,5.7,0,5.3-4.1-8.6-48.8,11.1-142.4,64.8-184.2,4.5-3.7,6.6-7.4-2.9-4.9-69.8,18-147.3,171.1-66.9,192.8l-.4.4h0Z"/>
  <path class="st1" d="M835.8,155.1c-25.8-41-92.7-38.6-93.1-38.6-1.2,0-1.2.4,0,.8,34.9,9.4,66.1,34.5,87.4,63.6,1.6-10.3,2.5-15.2,5.7-25.8"/>
  <path class="st1" d="M973.2,25.4c0-14,11.5-25.4,25.4-25.4s25.4,11.5,25.4,25.4-11.5,25.4-25.4,25.4-25.4-11.5-25.4-25.4"/>
  <path class="st0" d="M425.1,125.5h-88.2v123.9c0,26.7,19.3,32.4,28.7,35.3,1.2,0,2,.8,3.3.8l4.5,1.6v-43.1h51.7c16,0,27.1-4.1,33.2-11.5,4.5-5.7,6.6-14.4,6.6-27.1v-39.8c0-13.1-2.5-23-7-28.3-6.2-7.8-17.2-11.5-32.8-11.5v-.4h0ZM373.4,144h26.3c16.4,0,22.6,2.5,25,4.1,1.6,1.2,3.7,4.5,3.7,13.1v46c0,7.4-1.2,11.5-2.1,13.1-2.1,3.7-6.2,5.3-13.1,5.3h-39.8v-81.7h0Z"/>
  <path class="st0" d="M93.1,125.5h-53.8c-15.6,0-26.7,4.1-32.8,11.5-4.5,5.7-6.6,14.4-6.6,27.1v41.4c0,12.7,2,21.3,6.6,27.1,6.2,7.8,16.8,11.5,32.8,11.5h72.6v-18.5h-55c-9,0-15.2-1.6-17.6-4.9-.8-1.2-2.5-4.9-2.5-14.8v-8.6h56.2c14.8,0,32.4-6.2,32.4-35.7s-17.6-36.5-32.4-36.5v.4h0ZM94,162.1c0,8.6-1.6,12.3-3.3,14s-6.2,2.9-11.9,2.9h-42.3v-15.2c0-7.8,1.2-11.9,2-13.5,2-4.1,6.6-6.2,13.5-6.2h26.7c6.2,0,10.3,1.2,11.9,3.3,1.2,1.6,3.3,5.3,3.3,14.4v.4h0Z"/>
  <path class="st0" d="M287.2,125.5h-32.8l-26.3,30.4-9.4-10.7c-16.4-18.5-40.2-20.1-47.2-20.1s-9.4.4-12.3,1.6l-4.5,1.6,48.4,56.2-51.3,59.5h32.8l34.9-40.6,17.2,20.1c16.4,18.5,40.2,20.1,47.2,20.1s9.4-.4,12.3-1.6l4.5-1.6-56.6-65.7,42.7-49.6.4.4h0Z"/>
  <path class="st0" d="M501,162.9v44.3c-.8,18.5,10.3,31.2,31.2,36.1l4.9,1.2v-78.8c0-12.3,1.6-16,2.5-16.8,1.2-1.6,6.2-4.5,20.5-4.5h55.8v-18.5h-61.1c-35.7,0-54.2,12.7-54.2,37.3l.4-.4h0Z"/>
  <path class="st0" d="M648.7,125.5v18.5h27.9v64.8c0,19.3,11.1,29.5,32,34l4.1.8v-118.6h-64v.4h0Z"/>
  <path class="st0" d="M1173.4,135.4c-5.7-6.6-16.8-9.9-32.8-9.9h-68.9v18.5h56.6c6.6,0,11.1,1.2,13.1,4.1,1.2,1.6,2.5,4.5,2.5,11.1v11.1h-57.4c-11.5,0-20.5,4.5-26.7,13.1-4.9,7-7.4,15.2-7.4,24.2s2.5,16.8,7.4,23.8c6.2,8.6,15.2,13.1,26.7,13.1h93.6v-82.5c0-12.7-2.1-21.3-6.6-26.3v-.4h0ZM1143.9,189.1v36.5h-45.9c-2.1,0-5.3-.8-7.8-7-1.6-3.7-2.5-8.2-2.5-12.7,0-7,2.1-11.9,6.2-14,2.5-1.2,7.8-2.9,19.7-2.9h30.4Z"/>
  <path class="st0" d="M953.1,125.5v18.5h27.9v62.8c0,19.3,11.1,32,32.4,36.5l4.1.8v-118.6h-64.4Z"/>
</svg>